<svg id="disconnect_account" viewBox="0 0 24 24" fill="none" xmlns="http://www.w3.org/2000/svg">
    <path d="M3 7C3 4.79086 4.79086 3 7 3H13C13.5523 3 14 3.44772 14 4C14 4.55228 13.5523 5 13 5H7C5.89543 5 5 5.89543 5 7V17C5 18.1046 5.89543 19 7 19H13C13.5523 19 14 19.4477 14 20C14 20.5523 13.5523 21 13 21H7C4.79086 21 3 19.2091 3 17V7Z"
          fill="#FFFFFF"/>
    <path d="M15.2929 7.29289C15.6834 6.90237 16.3166 6.90237 16.7071 7.29289L20.7071 11.2929C21.0976 11.6834 21.0976 12.3166 20.7071 12.7071L16.7071 16.7071C16.3166 17.0976 15.6834 17.0976 15.2929 16.7071C14.9024 16.3166 14.9024 15.6834 15.2929 15.2929L17.5858 13H11C10.4477 13 10 12.5523 10 12C10 11.4477 10.4477 11 11 11H17.5858L15.2929 8.70711C14.9024 8.31658 14.9024 7.68342 15.2929 7.29289Z"
          fill="#FFFFFF"/>
</svg>
